<svg width="246" height="134" viewBox="0 0 246 134" fill="none" xmlns="http://www.w3.org/2000/svg">
<path d="M220.884 133.07C220.882 133.012 220.859 132.941 220.883 132.899C220.923 132.829 220.995 132.777 221.053 132.718C221.089 132.778 221.14 132.835 221.157 132.901C221.17 132.951 221.141 133.013 221.13 133.069H220.884V133.07Z" fill="black"/>
<path d="M37.3986 42.4048C37.6172 41.7783 37.8721 41.162 38.0456 40.5231C38.319 39.5178 38.5478 38.5002 38.774 37.4831C38.8621 37.0864 38.8795 36.6738 38.9532 36.273C39.0192 35.9136 39.1134 35.5589 39.2045 35.2047C39.74 33.1259 40.2739 31.0467 40.8159 28.9694C41.5894 26.0051 42.3316 23.0316 43.1598 20.0822C43.7787 17.8785 44.5194 15.7091 45.191 13.5203C45.7008 11.8593 46.1856 10.1905 46.6852 8.52591C47.173 6.9012 47.6654 5.27853 48.1548 3.65433C48.4204 2.77338 48.6769 1.88987 48.9513 1.01148C49.1228 0.462747 49.1494 0.438689 49.7329 0.445855C51.1646 0.463771 52.5964 0.537994 54.0276 0.51803C56.6254 0.482199 59.2222 0.391084 61.8195 0.330682C62.7403 0.309183 63.6612 0.302016 64.5821 0.306111C64.8867 0.307647 65.1984 0.333241 65.4932 0.404393C66.1628 0.566659 66.8293 0.566659 67.5008 0.447391C68.0629 0.347574 68.6239 0.238543 69.2673 0.32761C69.3006 0.593789 69.3605 0.849218 69.361 1.10516C69.3646 3.06669 69.3574 5.02873 69.3518 6.99026C69.3482 8.15582 69.3498 9.32137 69.3349 10.4869C69.3119 12.3476 69.211 14.2093 69.2638 16.0675C69.3364 18.6233 69.2085 21.1745 69.1993 23.7278C69.1727 31.0938 69.1076 38.4597 69.101 45.8257C69.0974 49.9581 69.1808 54.0906 69.2233 58.223C69.2295 58.8101 69.2243 59.3972 69.2243 60.0637C64.8145 60.1067 60.4952 60.1906 56.1279 60.0709C55.9492 59.8037 56.0173 59.4668 56.0163 59.1536C56.0117 57.9875 56.0239 56.8209 56.0378 55.6549C56.0644 53.4046 56.1043 51.1544 56.1238 48.9042C56.1381 47.2682 56.1908 45.6297 56.1176 43.9968C55.9579 40.4115 56.2768 36.8417 56.3654 33.2646C56.4084 31.5263 56.4422 29.7869 56.4391 28.0481C56.4345 25.204 56.3992 22.36 56.3705 19.516C56.3582 18.309 56.328 17.1025 56.3075 15.896C56.3029 15.6334 56.307 15.3708 56.307 15.1087C56.2676 15.099 56.2277 15.0887 56.1883 15.079C56.1335 15.1671 56.0541 15.2485 56.0275 15.3447C55.6098 16.8588 55.2136 18.3791 54.7826 19.8897C54.2405 21.7903 53.6724 23.6832 53.1149 25.5793C52.3369 28.2247 51.5629 30.8716 50.7787 33.515C50.0411 36.0032 49.2804 38.4848 48.553 40.9756C48.1067 42.5041 47.7151 44.0485 47.2769 45.5795C46.8776 46.9744 46.4129 48.3508 46.0402 49.7524C45.2381 52.7719 44.4953 55.8074 43.4235 58.7482C43.3605 58.9207 43.3134 59.1106 43.2064 59.2534C42.9868 59.5462 42.8394 59.8728 42.3193 59.8375C41.0171 59.7494 39.7067 59.7924 38.4019 59.7259C36.728 59.6404 35.0573 59.4945 33.3844 59.3844C32.7927 59.3455 32.1989 59.3194 31.6056 59.3199C31.2888 59.3199 31.126 59.1874 31.0073 58.9084C30.415 57.515 29.8335 56.1207 29.4353 54.6531C29.1143 53.4702 28.7053 52.3107 28.3593 51.1344C28.1289 50.3507 27.9621 49.5481 27.7297 48.7654C27.206 47.0036 26.6558 45.2493 26.1219 43.4905C25.2629 40.6583 24.3548 37.8414 23.3618 35.0532C22.6063 32.9309 22.0519 30.7559 21.5318 28.564C21.1366 26.8973 20.5239 25.2813 19.988 23.6495C19.0436 20.7737 18.0428 17.9159 17.4229 14.9449C17.3288 14.4934 17.2161 14.0455 16.9976 13.614C17.0518 15.1036 17.0964 16.5942 17.1624 18.0833C17.2402 19.839 17.3416 21.5943 17.4224 23.35C17.4982 25.0013 17.5826 26.6527 17.6215 28.3055C17.661 29.9993 17.6594 31.6942 17.6579 33.3885C17.6558 36.2704 17.6364 39.1523 17.6303 42.0342C17.6236 45.2457 17.6297 48.4568 17.619 51.6683C17.6113 53.914 17.5847 56.1591 17.5678 58.4047C17.5652 58.7256 17.5678 59.0466 17.5678 59.4341C17.3349 59.4433 17.1179 59.4633 16.9013 59.4581C15.9195 59.4346 14.9372 59.3634 13.957 59.386C12.5877 59.4172 11.2194 59.5129 9.85118 59.5877C8.66618 59.6527 7.48271 59.7407 6.29719 59.7914C5.72798 59.8154 5.60717 59.6736 5.59335 59.1234C5.55189 57.4674 5.49865 55.8115 5.47255 54.1551C5.42341 51.0249 5.38604 47.8947 5.35226 44.7646C5.32615 42.3096 5.31796 39.8546 5.29339 37.3991C5.2678 34.8627 5.21354 32.3269 5.20381 29.7905C5.19255 26.8851 5.2294 23.9796 5.22224 21.0747C5.21405 17.9041 5.20023 14.733 5.15006 11.5629C5.10758 8.90521 5.01339 6.24855 4.93302 3.59137C4.90692 2.73294 4.84345 1.87503 4.81683 1.0166C4.80096 0.506769 4.87723 0.431523 5.3543 0.409512C7.13104 0.327099 8.90727 0.218068 10.685 0.181212C12.8938 0.135143 15.1046 0.164832 17.3139 0.136167C19.4991 0.108013 21.6838 0.0491468 23.8691 0.0020537C24.3646 -0.00869581 24.4265 0.00563685 24.5903 0.483223C24.9015 1.3913 25.1774 2.31166 25.4779 3.22384C25.8869 4.46464 26.3184 5.69776 26.7172 6.94163C27.1211 8.20035 27.4845 9.47187 27.8889 10.7301C28.2236 11.7712 28.6035 12.7986 28.9428 13.8382C29.1394 14.4402 29.2889 15.057 29.4711 15.6641C29.7977 16.7539 30.133 17.8406 30.4636 18.9289C31.0989 21.0209 31.7316 23.1135 32.3689 25.2051C33.7151 29.6252 35.0747 34.0412 36.4045 38.4659C36.79 39.7497 37.2189 41.0284 37.4002 42.4048H37.3986Z" fill="black"/>
<path d="M42.5386 94.6214C42.8426 94.7427 43.0264 94.8143 43.2097 94.8896C44.6086 95.4634 46.0537 95.9246 47.3769 96.6801C48.7431 97.4608 49.9122 98.4702 50.9601 99.6317C51.1382 99.8292 51.3051 100.038 51.4965 100.222C52.898 101.568 53.4478 103.303 53.7549 105.147C53.8962 105.994 54.06 106.841 54.1271 107.694C54.1926 108.525 54.145 109.364 54.1511 110.199C54.1619 111.67 53.7437 113.06 53.3736 114.462C53.0235 115.79 52.3406 116.938 51.5712 118.053C50.3156 119.875 48.5798 121.179 46.8235 122.447C45.9825 123.054 45.0304 123.508 44.1198 124.016C43.0059 124.637 41.7487 124.75 40.53 124.993C39.7683 125.145 39.004 125.283 38.2398 125.419C38.0397 125.455 37.8349 125.478 37.6322 125.481C36.9161 125.491 36.1994 125.485 35.4833 125.493C31.9846 125.536 28.4854 125.572 24.9867 125.63C22.4718 125.671 19.9579 125.767 17.4431 125.792C16.0943 125.805 14.7444 125.723 13.3951 125.678C11.2483 125.607 9.10195 125.53 6.95563 125.457C6.77135 125.451 6.58656 125.46 6.40331 125.448C5.88631 125.414 5.7737 125.3 5.76499 124.768C5.72353 122.294 5.67081 119.82 5.6534 117.346C5.62883 113.848 5.62218 110.35 5.6273 106.853C5.63191 103.703 5.68002 100.553 5.67644 97.4029C5.67337 94.519 5.59966 91.635 5.60529 88.7516C5.61552 83.555 5.65801 78.3589 5.69435 73.1628C5.7092 71.0559 5.74298 68.9489 5.76909 66.8426C5.77011 66.7402 5.77677 66.6378 5.78803 66.5364C5.83461 66.1264 5.9073 66.0517 6.33011 66.044C7.14861 66.0292 7.96711 66.0312 8.78561 66.0179C10.8111 65.9857 12.8366 65.9637 14.8616 65.9094C17.1707 65.8475 19.4783 65.7394 21.7874 65.6796C23.3609 65.6386 24.936 65.6355 26.51 65.6345C29.0469 65.6325 31.5838 65.6442 34.1202 65.6535C36.4027 65.6616 38.6406 65.9432 40.7966 66.7356C41.7743 67.0949 42.7607 67.4281 43.7384 67.7875C44.9449 68.2308 46.0056 68.9223 46.9597 69.772C47.813 70.5322 48.718 71.2545 49.4638 72.1114C51.0072 73.8845 51.8374 76.0109 52.1645 78.3261C52.313 79.3775 52.4348 80.4381 52.4727 81.4982C52.5551 83.7981 51.9086 85.9035 50.5848 87.7872C50.0443 88.5561 49.4526 89.2891 48.8946 90.0456C48.2942 90.86 47.5857 91.5547 46.735 92.1095C45.7778 92.734 44.8779 93.4507 43.8203 93.9124C43.5961 94.0102 43.3591 94.0813 43.1441 94.1955C42.9604 94.2932 42.8007 94.4345 42.5381 94.6224L42.5386 94.6214ZM20.2011 115.535C20.4473 115.535 20.6034 115.538 20.759 115.535C22.675 115.495 24.591 115.433 26.5075 115.421C27.8143 115.412 29.1211 115.476 30.428 115.502C31.6882 115.527 32.9029 115.239 34.1038 114.911C35.1163 114.634 35.8631 113.917 36.6437 113.255C38.0801 112.038 38.8505 110.448 39.3081 108.67C39.5758 107.632 39.2528 106.65 39.0266 105.653C38.8489 104.87 38.4599 104.23 37.9168 103.652C37.5585 103.271 37.256 102.838 36.9284 102.428C37.0399 102.358 37.1157 102.312 37.2616 102.221C36.6949 101.835 36.2353 101.501 35.7546 101.2C35.1803 100.839 34.5256 100.677 33.8862 100.468C32.8671 100.133 31.8223 99.947 30.7638 99.9193C29.1503 99.8774 27.5348 99.9326 25.9203 99.9239C24.1876 99.9147 22.4539 100.107 20.7217 99.8871C20.5758 99.8686 20.4181 99.9434 20.3122 99.9654C20.2748 105.157 20.2379 110.287 20.2001 115.534L20.2011 115.535ZM20.1576 90.1946C21.1573 90.233 22.0935 90.2775 23.0303 90.3026C24.1134 90.3313 25.197 90.3717 26.2797 90.3538C27.9525 90.3262 29.6299 90.319 31.2956 90.1798C32.7806 90.0554 34.1647 89.5793 35.2862 88.5049C36.0274 87.7944 36.7702 87.087 37.1904 86.1328C37.7791 84.7953 37.8528 83.4101 37.4853 81.9958C37.3829 81.6016 37.3189 81.1973 37.236 80.7975C37.1316 80.2933 37.0036 79.7891 36.6361 79.4093C36.0408 78.7945 35.4291 78.1946 34.8046 77.609C34.2389 77.0787 33.5643 76.7004 32.8307 76.4762C31.4261 76.0462 29.9801 75.9023 28.5099 75.9412C27.3331 75.9725 26.1548 75.974 24.978 75.9566C23.5498 75.9351 22.1222 75.8788 20.6945 75.8399C20.4775 75.8338 20.2599 75.8389 19.9538 75.8389C19.9538 80.6541 19.8817 85.385 20.1576 90.1946ZM37.6281 102.855C37.6476 102.838 37.667 102.821 37.6865 102.803C37.6271 102.736 37.5677 102.668 37.5083 102.601C37.4873 102.62 37.4663 102.638 37.4454 102.657C37.5063 102.723 37.5672 102.789 37.6281 102.855Z" fill="black"/>
<path d="M135.472 35.5642C135.831 35.061 136.19 34.5712 136.535 34.071C137.848 32.1699 139.196 30.298 140.732 28.5663C141.911 27.2359 143.069 25.8871 144.246 24.5541C145.151 23.5294 146.068 22.5158 146.983 21.5003C147.31 21.1363 147.676 20.8031 147.974 20.4166C148.269 20.0332 148.644 19.9057 149.093 19.8976C149.707 19.8863 150.321 19.8684 150.935 19.8617C155.006 19.8172 159.077 19.7747 163.149 19.7337C163.363 19.7317 163.577 19.7476 163.822 19.8254C162.207 21.727 160.469 23.4746 158.8 25.2856C157.108 27.1207 155.436 28.9748 153.76 30.8247C152.102 32.6562 150.44 34.4852 148.855 36.2911C151.533 40.6052 154.131 44.8549 156.793 49.063C159.816 53.8384 164.172 61.1721 164.38 61.9927C164.2 62.0085 164.029 62.0372 163.858 62.0367C161.793 62.0311 159.728 62.0203 157.663 62.0126C155.847 62.006 154.032 62.009 152.217 61.9922C151.503 61.9855 150.788 61.9343 150.073 61.9092C149.727 61.8969 149.521 61.7116 149.355 61.4209C148.889 60.6055 148.407 59.7993 147.925 58.993C146.445 56.5217 144.991 54.0339 143.471 51.5876C142.252 49.6266 140.951 47.7168 139.687 45.7834C139.522 45.53 139.365 45.2705 139.179 44.9731C139.032 45.0949 138.9 45.1835 138.794 45.2961C137.601 46.5589 136.414 47.8274 135.221 49.0891C134.988 49.3354 134.948 49.6251 134.964 49.9404C135.013 50.9002 135.08 51.86 135.101 52.8203C135.125 53.9392 135.107 55.0587 135.107 56.1782C135.107 56.2601 135.091 56.3446 135.106 56.4234C135.248 57.1835 135.109 57.9411 135.096 58.7002C135.082 59.5566 135.089 60.413 135.08 61.2694C135.078 61.4086 135.045 61.5478 135.018 61.748C134.752 61.7715 134.495 61.815 134.238 61.8135C132.008 61.7997 129.778 61.7741 127.549 61.7592C125.792 61.7475 124.036 61.7454 122.28 61.7383C122.157 61.7383 122.034 61.7429 121.912 61.7296C121.473 61.6814 121.313 61.4905 121.316 61.0416C121.345 56.4894 121.384 51.9378 121.399 47.3856C121.412 43.7042 121.392 40.0227 121.398 36.3412C121.4 35.0134 121.439 33.6856 121.455 32.3578C121.471 31.0371 121.495 29.716 121.485 28.3953C121.475 27.1084 121.393 25.8216 121.402 24.5352C121.413 23.0426 121.514 21.5504 121.531 20.0573C121.554 17.9299 121.554 15.8015 121.534 13.6736C121.495 9.64456 121.437 5.61503 121.381 1.58601C121.367 0.559683 121.387 0.509007 122.426 0.512078C124.551 0.518733 126.677 0.54791 128.802 0.570945C130.315 0.587325 131.829 0.601146 133.342 0.632882C133.809 0.642608 134.274 0.706082 134.778 0.748056C134.809 0.943083 134.854 1.09716 134.856 1.25175C134.884 3.74717 134.916 6.24208 134.928 8.73751C134.943 11.7863 134.938 14.835 134.946 17.8843C134.956 20.9945 134.954 24.1052 134.992 27.2154C135.009 28.6036 135.131 29.9903 135.169 31.3785C135.202 32.5779 135.178 33.7788 135.189 34.9791C135.191 35.1675 135.117 35.3994 135.473 35.5637L135.472 35.5642Z" fill="black"/>
<path d="M115.89 61.3469C115.207 61.3469 114.599 61.3531 113.992 61.3459C111.926 61.3218 109.86 61.2998 107.794 61.2645C106.446 61.2415 105.098 61.1959 103.751 61.1606C103.669 61.1585 103.587 61.1514 103.505 61.1529C102.883 61.1652 102.851 61.1698 102.776 60.5786C102.606 59.24 102.473 57.8968 102.323 56.5552C102.292 56.2788 102.252 56.0029 102.203 55.6195C101.762 56.1334 101.414 56.5746 101.03 56.9831C99.8899 58.1947 98.6307 59.2554 97.1452 60.0314C96.3472 60.4481 95.5031 60.7352 94.6528 61.0198C93.1259 61.5302 91.5411 61.6182 89.9558 61.7672C88.1975 61.9325 86.4975 61.5957 84.7889 61.3285C82.4552 60.963 80.3918 59.9387 78.5582 58.4896C77.8969 57.967 77.3635 57.2595 76.848 56.5792C75.6144 54.9525 74.9413 53.0657 74.5174 51.0949C74.2589 49.8931 74.3449 48.6635 74.3869 47.4365C74.453 45.519 75.1363 43.8216 76.0582 42.1913C76.414 41.5622 76.8803 41.0262 77.4848 40.6162C78.0433 40.2374 78.5874 39.8366 79.151 39.4665C80.6467 38.4837 82.2576 37.7435 83.9873 37.2864C85.3821 36.9179 86.7786 36.534 88.196 36.2811C89.3943 36.0671 90.6233 35.9545 91.8411 35.9325C93.8963 35.8956 95.9126 35.61 97.9294 35.2553C99.0325 35.0613 100.15 34.9517 101.26 34.7987C101.421 34.7767 101.577 34.725 101.794 34.6728C101.974 34.0319 102.219 33.4146 102.144 32.681C102.062 31.8912 102.005 31.106 101.825 30.3279C101.65 29.5713 101.276 28.9054 100.827 28.3183C100.484 27.8693 99.9626 27.4875 99.4399 27.2587C98.3788 26.7944 97.2532 26.4668 96.0728 26.5364C94.6001 26.6234 93.1658 26.8717 91.9127 27.747C91.0758 28.3316 90.5655 29.1536 90.1995 30.0699C89.9589 30.6734 89.7935 31.3071 89.6011 31.9296C89.4424 32.442 89.3267 32.5454 88.7667 32.5264C87.5827 32.486 86.3998 32.4154 85.2158 32.3785C84.4828 32.3555 83.7477 32.3846 83.0142 32.3683C80.9349 32.3212 78.8551 32.2695 76.7764 32.1993C76.5338 32.1912 76.2952 32.057 75.9901 31.9608C75.9845 31.9654 75.8995 32.0376 75.79 32.1297C75.7623 32.0478 75.7194 31.9895 75.7316 31.9465C75.9328 31.2385 76.135 30.5311 76.349 29.8273C76.5747 29.084 76.826 28.3485 77.0426 27.6026C77.5237 25.9436 78.3422 24.4658 79.5027 23.2C80.4558 22.1598 81.5461 21.2773 82.7787 20.5561C84.02 19.8297 85.3202 19.2446 86.6685 18.7814C87.6641 18.4395 88.7119 18.248 89.7398 18.0038C90.2112 17.8917 90.6873 17.7607 91.1664 17.731C92.5244 17.6465 93.885 17.5872 95.2456 17.5626C96.3052 17.5431 97.3719 17.5247 98.4249 17.6225C100.128 17.7801 101.842 17.9025 103.508 18.3366C104.199 18.5167 104.888 18.7051 105.578 18.8914C106.998 19.2743 108.249 20.012 109.479 20.7823C110.153 21.2041 110.838 21.6326 111.429 22.1583C113.086 23.633 114.128 25.5029 114.789 27.6088C115.34 29.3651 115.51 31.1653 115.518 32.9912C115.529 36.019 115.547 39.0468 115.548 42.0746C115.548 43.5856 115.534 45.0972 115.492 46.6078C115.462 47.6485 115.337 48.6865 115.322 49.7267C115.308 50.665 115.39 51.6038 115.422 52.5431C115.471 53.9656 115.487 55.3901 115.563 56.8111C115.631 58.1159 115.76 59.4181 115.861 60.7214C115.874 60.9026 115.879 61.0848 115.891 61.3485L115.89 61.3469ZM102.045 41.8667C101.263 41.9584 100.572 42.006 99.8935 42.1268C98.4387 42.3853 96.963 42.4687 95.5056 42.7329C94.3877 42.9356 93.2979 43.2345 92.1897 43.4561C90.9463 43.7044 89.9604 44.354 89.1271 45.2283C88.7206 45.6547 88.3981 46.2362 88.2415 46.8033C88.0726 47.4176 88.0536 48.1071 88.1243 48.7464C88.2814 50.1659 89.0411 51.2715 90.2123 52.0583C91.5503 52.9572 93.1402 53.1624 94.6595 53.552C94.7148 53.5663 94.7808 53.5336 94.8412 53.5351C95.7385 53.5581 96.5898 53.3196 97.3919 52.9689C97.9775 52.713 98.5831 52.4514 98.9921 51.8868C99.5418 51.1267 100.13 50.3937 100.719 49.6632C101.69 48.4582 101.977 47.0275 102.081 45.5441C102.128 44.8725 102.102 44.1948 102.096 43.5196C102.09 42.9908 102.063 42.4626 102.044 41.8667H102.045Z" fill="black"/>
<path d="M99.4029 115.081C99.4187 115.189 99.4295 115.212 99.4234 115.228C98.8188 116.752 98.1795 118.257 97.0257 119.469C96.3214 120.209 95.6692 121.018 94.8814 121.657C93.0238 123.163 91.0909 124.546 88.7665 125.314C87.0752 125.872 85.3359 126.17 83.6072 126.534C83.1327 126.634 82.6306 126.608 82.1402 126.627C81.2434 126.662 80.3419 126.751 79.4492 126.698C78.0851 126.62 76.7265 126.443 75.3659 126.302C74.9999 126.264 74.6293 126.24 74.272 126.159C71.1163 125.44 68.109 124.39 65.5951 122.244C65.1759 121.885 64.6906 121.599 64.2991 121.215C63.7467 120.673 63.2297 120.09 62.7404 119.49C62.0458 118.637 61.3317 117.791 60.7348 116.871C60.2035 116.053 59.8267 115.137 59.3707 114.269C58.7011 112.996 58.5286 111.589 58.2532 110.208C57.9272 108.574 57.8012 106.933 57.9599 105.265C58.0372 104.454 57.9727 103.63 57.9886 102.812C58.0428 100.007 58.4641 97.2791 59.6394 94.6966C60.3606 93.1114 61.1807 91.5783 62.1333 90.1276C62.6892 89.2809 63.4202 88.549 64.0774 87.7694C64.2883 87.5196 64.5002 87.2672 64.7408 87.0481C64.8964 86.9063 65.1032 86.8198 65.2906 86.7144C65.3781 86.6652 65.4917 86.6488 65.5608 86.5838C66.451 85.7423 67.5408 85.2422 68.6403 84.7518C69.3309 84.4437 70.004 84.0976 70.693 83.7859C72.1401 83.1307 73.6731 82.7806 75.239 82.583C76.4332 82.432 77.6331 82.3045 78.8345 82.2467C79.6857 82.2057 80.5472 82.2579 81.3974 82.3414C83.0442 82.5031 84.6991 82.6577 86.2849 83.1665C87.4704 83.5468 88.6477 83.9599 89.8077 84.4129C90.9614 84.8639 91.9499 85.598 92.8319 86.4554C93.8136 87.4095 94.8149 88.356 95.6928 89.4023C96.9341 90.8811 97.8754 92.5549 98.5265 94.3859C99.0548 95.8709 99.4612 97.3866 99.6189 98.9524C99.8052 100.801 99.9224 102.656 100.06 104.509C100.109 105.159 100.121 105.811 100.169 106.461C100.193 106.8 100.067 106.951 99.7249 106.962C99.3374 106.976 98.9519 107.031 98.5644 107.049C96.4606 107.144 94.3573 107.247 92.2524 107.32C89.411 107.417 86.5685 107.483 83.727 107.572C81.336 107.646 78.9455 107.74 76.5545 107.814C75.0056 107.861 73.4566 107.887 71.9072 107.922C71.8048 107.924 71.7019 107.915 71.6005 107.924C71.2177 107.956 71.1148 108.034 71.1685 108.425C71.2627 109.111 71.3671 109.802 71.5504 110.469C71.921 111.816 72.6765 112.952 73.6 113.986C73.8175 114.23 73.9844 114.524 74.2229 114.741C74.5367 115.027 74.8669 115.329 75.2456 115.502C75.9869 115.84 76.7506 116.151 77.5338 116.371C79.849 117.023 82.1356 116.893 84.3797 116.008C85.2289 115.673 85.9849 115.23 86.6033 114.537C87.1459 113.929 87.7745 113.396 88.3217 112.791C88.5894 112.495 88.79 112.126 88.9661 111.763C89.3127 111.051 89.6899 110.879 90.4357 111.149C93.3054 112.184 96.0905 113.414 98.826 114.76C99.0261 114.858 99.2166 114.976 99.4024 115.079L99.4029 115.081ZM86.506 100.012C86.506 99.2898 86.5321 98.6187 86.4953 97.9507C86.4763 97.6113 86.3873 97.2602 86.2552 96.9459C85.7884 95.8356 85.2601 94.7504 84.8122 93.633C84.523 92.9117 84.1283 92.2913 83.5253 91.8086C82.564 91.0393 81.5203 90.4874 80.2391 90.4895C79.3182 90.491 78.4106 90.5617 77.4969 90.6907C76.2239 90.8703 75.0941 91.3597 74.1379 92.1777C73.3834 92.8232 72.7164 93.5777 72.0546 94.3225C71.8212 94.5851 71.6732 94.949 71.5621 95.2915C71.1572 96.5394 70.9668 97.8319 70.8296 99.1331C70.758 99.8124 70.802 99.8871 71.4731 99.9378C72.4912 100.014 73.5114 100.081 74.5321 100.107C76.9231 100.17 79.3151 100.245 81.7066 100.238C83.2776 100.234 84.8485 100.095 86.5065 100.012L86.506 100.012Z" fill="black"/>
<path d="M176.84 46.2603C176.831 46.3017 176.818 46.3253 176.824 46.3412C177.157 47.2549 177.479 48.1732 177.832 49.0802C178.267 50.2008 179.055 51.0919 179.805 52.0021C179.981 52.2165 180.22 52.3957 180.462 52.539C181.109 52.9224 181.749 53.3309 182.435 53.6309C183.478 54.0864 184.547 54.4898 185.722 54.4693C186.149 54.4622 186.577 54.52 187.004 54.5415C187.166 54.5497 187.333 54.562 187.491 54.5323C187.952 54.4463 188.405 54.2866 188.869 54.2518C190.339 54.1402 191.452 53.3191 192.561 52.475C193.499 51.7615 194.208 50.8319 194.957 49.9402C195.481 49.3157 195.931 49.1683 196.661 49.5128C198.355 50.3129 200.036 51.1416 201.72 51.9647C202.802 52.494 203.878 53.0361 204.96 53.5669C205.418 53.7911 205.456 53.853 205.23 54.303C204.53 55.6938 203.711 57.0113 202.636 58.1441C201.358 59.4914 199.925 60.6529 198.315 61.5958C197.114 62.2986 195.869 62.9057 194.547 63.3208C193.44 63.6678 192.302 63.9176 191.173 64.1925C190.363 64.3896 189.533 64.4669 188.701 64.4561C186.943 64.4336 185.185 64.3799 183.427 64.3456C181.906 64.3159 180.45 63.9125 178.996 63.5342C178.012 63.2783 177.06 62.9021 176.088 62.5955C175.175 62.3078 174.367 61.8235 173.558 61.3275C173.021 60.9984 172.442 60.7373 171.895 60.423C171.65 60.2823 171.42 60.1036 171.213 59.9101C170.69 59.4228 170.164 58.9365 169.676 58.4154C169.007 57.7003 168.322 56.9909 167.74 56.2077C167.307 55.6262 167.01 54.9403 166.683 54.2861C166.017 52.9552 165.464 51.5767 165.068 50.1414C164.88 49.4601 164.772 48.7567 164.6 48.0708C164.285 46.8147 164.207 45.5324 164.165 44.2476C164.134 43.2878 164.147 42.3265 164.121 41.3667C164.089 40.2155 164.314 39.097 164.513 37.9739C164.631 37.3121 164.684 36.6328 164.864 35.9884C165.148 34.9687 165.51 33.9705 165.849 32.9662C166.374 31.4085 167.09 29.9318 167.981 28.5615C169.18 26.7197 170.64 25.1221 172.464 23.8342C173.728 22.942 175.017 22.1629 176.476 21.6628C177.017 21.4775 177.561 21.3014 178.097 21.1003C179.444 20.595 180.838 20.3447 182.266 20.1773C184.043 19.969 185.811 19.9736 187.575 20.1907C188.952 20.3606 190.312 20.6672 191.687 20.8674C192.949 21.0511 194.154 21.4268 195.326 21.9029C196.532 22.3923 197.66 23.0275 198.733 23.7728C199.967 24.6297 201.023 25.677 201.975 26.8139C202.597 27.5571 203.051 28.4417 203.577 29.2658C204.614 30.8946 205.015 32.7502 205.484 34.5848C206.182 37.3172 206.021 40.1054 206.064 42.8814C206.077 43.7388 206.066 44.5967 206.066 45.4684C205.664 45.6931 205.246 45.6148 204.851 45.6107C203.235 45.5933 201.62 45.536 200.004 45.5191C196.179 45.4797 192.353 45.4049 188.528 45.4438C186.283 45.4664 184.045 45.344 181.804 45.2974C180.478 45.2698 179.152 45.2514 177.826 45.237C177.272 45.2309 177.168 45.2892 177.207 45.7991C177.233 46.1441 176.901 46.0832 176.839 46.2598L176.84 46.2603ZM192.702 38.3102L192.848 38.3548C192.88 38.2468 192.947 38.1367 192.94 38.0313C192.842 36.6047 192.705 35.1806 192.641 33.753C192.6 32.8346 192.376 31.9752 192.011 31.1495C191.856 30.8004 191.666 30.416 191.38 30.1857C190.436 29.426 189.37 28.8563 188.217 28.4775C186.708 27.982 185.165 27.9283 183.614 28.242C182.188 28.5307 180.902 29.1783 179.761 30.0454C178.688 30.8603 178.086 32.0366 177.81 33.3491C177.579 34.4471 177.411 35.5584 177.233 36.6666C177.192 36.9184 177.226 37.1826 177.226 37.4636C177.378 37.482 177.476 37.503 177.574 37.5051C181.763 37.5834 185.952 37.6602 190.141 37.7375C190.774 37.7492 191.408 37.7564 192.041 37.7779C192.507 37.7938 192.544 37.8332 192.702 38.3102V38.3102Z" fill="black"/>
<path d="M212.325 109.228C211.295 109.228 210.315 109.243 209.337 109.225C206.841 109.18 204.346 109.107 201.85 109.069C199.457 109.032 197.063 108.983 194.671 109.016C192.648 109.043 190.626 109.185 188.604 109.267C187.892 109.295 187.179 109.302 186.467 109.306C185.755 109.31 185.041 109.33 184.332 109.28C183.901 109.251 183.577 109.32 183.347 109.707C183.303 109.782 183.185 109.813 183.029 109.909C183.283 110.749 183.519 111.591 183.797 112.419C183.956 112.89 184.104 113.358 184.579 113.678C184.854 113.864 184.99 114.26 185.186 114.563C186.447 116.505 188.329 117.579 190.501 118.081C191.899 118.405 193.37 118.444 194.812 118.118C195.248 118.019 195.69 117.945 196.134 117.887C196.904 117.786 197.59 117.493 198.199 117.021C199.071 116.343 199.867 115.586 200.574 114.736C200.875 114.375 201.198 114.033 201.515 113.685C201.969 113.186 202.18 113.13 202.806 113.392C204.541 114.119 206.276 114.848 208.006 115.588C208.965 115.998 209.899 116.471 210.87 116.847C211.608 117.131 211.626 117.762 211.305 118.289C210.605 119.441 209.886 120.587 208.937 121.564C208.366 122.15 207.802 122.743 207.236 123.334C206.146 124.471 204.838 125.299 203.416 125.94C202.205 126.485 200.971 126.984 199.727 127.447C199.138 127.666 198.501 127.758 197.885 127.901C197.668 127.951 197.446 127.979 197.227 128.017C195.205 128.374 193.17 128.453 191.125 128.29C190.088 128.208 189.048 128.14 188.015 128.018C186.677 127.86 185.353 127.624 184.074 127.168C183.41 126.931 182.726 126.747 182.052 126.536C181.917 126.493 181.78 126.445 181.655 126.379C180.011 125.517 178.36 124.645 176.926 123.468C175.892 122.619 174.964 121.631 174.198 120.5C173.041 118.792 172.197 116.932 171.524 115.002C171.177 114.009 171.019 112.936 170.884 111.885C170.7 110.447 170.62 108.996 170.492 107.551C170.467 107.266 170.419 106.984 170.396 106.699C170.327 105.88 170.388 105.072 170.511 104.256C170.712 102.923 170.821 101.576 171.004 100.24C171.247 98.4675 171.801 96.7926 172.521 95.149C173.115 93.7894 174 92.6694 174.932 91.5545C175.429 90.9597 175.837 90.2897 176.338 89.6985C176.717 89.2521 177.171 88.8672 177.607 88.4725C178 88.1162 178.391 87.7492 178.827 87.4492C179.462 87.0111 180.103 86.5581 180.8 86.2386C181.894 85.737 183.036 85.3403 184.159 84.9021C184.311 84.8427 184.467 84.7829 184.627 84.7542C186.434 84.4276 188.221 83.9418 190.067 83.9019C191.454 83.8717 192.843 83.9454 194.232 83.9756C195.983 84.014 197.668 84.4384 199.348 84.874C200.014 85.047 200.667 85.2604 201.276 85.6269C202.08 86.1107 202.953 86.4797 203.773 86.9394C204.323 87.2486 204.889 87.569 205.352 87.9903C206.347 88.8958 207.292 89.8541 208.189 90.8666C209.566 92.4222 210.293 94.2962 210.98 96.1917C211.376 97.2835 211.672 98.4148 211.956 99.543C212.203 100.528 212.272 101.541 212.36 102.556C212.543 104.66 212.353 106.755 212.386 108.854C212.387 108.952 212.354 109.052 212.325 109.226V109.228ZM194.235 101.441C195.88 101.441 197.27 101.446 198.658 101.438C199.369 101.434 199.628 101.196 199.554 100.52C199.461 99.6694 199.365 98.8084 199.144 97.9858C198.538 95.733 197.3 93.859 195.478 92.4048C195.011 92.0326 194.43 91.7583 193.858 91.5796C193.474 91.4598 193.003 91.5356 192.588 91.6139C191.384 91.8422 190.199 92.1903 188.988 92.3526C187.541 92.5466 186.462 93.2463 185.681 94.4272C185.174 95.1925 184.728 95.9992 184.279 96.8008C184.102 97.1161 183.925 97.4565 183.865 97.8056C183.704 98.7301 183.596 99.6648 183.489 100.597C183.421 101.2 183.544 101.322 184.145 101.338C185.167 101.365 186.188 101.377 187.209 101.417C188.065 101.452 188.92 101.568 189.775 101.563C191.347 101.553 192.919 101.48 194.235 101.441L194.235 101.441Z" fill="black"/>
<path d="M168.55 94.5419C168.263 94.5466 168.063 94.5496 167.863 94.5537C165.637 94.5936 163.412 94.6331 161.186 94.6745C160.492 94.6873 159.798 94.7104 159.105 94.7242C158.767 94.7308 158.683 94.8117 158.664 95.235C158.637 95.8257 158.629 96.4175 158.61 97.0082C158.57 98.2715 158.524 99.5348 158.487 100.798C158.441 102.362 158.422 103.928 158.355 105.491C158.291 106.959 158.149 108.424 158.101 109.892C158.067 110.912 158.015 111.955 158.182 112.952C158.405 114.291 159.065 115.459 160.235 116.24C161.552 117.12 163.036 117.441 164.602 117.38C165.396 117.348 166.186 117.247 166.978 117.182C167.136 117.17 167.296 117.176 167.444 117.173C167.66 117.837 167.309 126.73 167.016 128.067C166.523 128.153 166.008 128.296 165.486 128.327C163.852 128.421 162.216 128.538 160.582 128.524C158.765 128.509 156.941 128.451 155.15 128.077C153.852 127.806 152.582 127.425 151.339 126.974C150.147 126.542 149.06 125.905 148.176 124.962C147.563 124.308 146.91 123.692 146.31 123.028C145.357 121.974 144.789 120.71 144.46 119.343C144.308 118.71 144.202 118.059 144.147 117.41C144.024 115.923 143.872 114.433 143.87 112.944C143.869 111.661 144.058 110.378 144.168 109.095C144.291 107.669 144.465 106.246 144.537 104.818C144.657 102.429 144.705 100.036 144.804 97.646C144.839 96.7886 144.948 95.9343 145 95.0774C145.061 94.0828 144.95 93.9686 143.973 93.9569C142.174 93.9359 140.374 93.9185 138.575 93.9031C137.585 93.8944 137.461 93.7844 137.473 92.8205C137.487 91.7742 137.596 90.7417 137.943 89.742C138.012 89.5414 138.029 89.2906 137.979 89.0853C137.787 88.3098 137.853 87.542 137.981 86.7711C138.056 86.3273 138.118 85.8814 138.209 85.4407C138.299 84.9979 138.376 84.9559 138.838 84.9759C140.432 85.0455 142.026 85.1126 143.619 85.1796C143.969 85.1945 144.316 85.2052 144.612 84.9605C144.671 84.9114 144.76 84.8919 144.838 84.874C145.359 84.7543 145.395 84.721 145.449 84.2306C145.464 84.0888 145.462 83.945 145.462 83.8016C145.474 82.0428 145.469 80.2835 145.5 78.5247C145.519 77.4825 145.612 76.4423 145.64 75.4001C145.651 74.9911 145.811 74.7572 146.189 74.6241C147.191 74.2724 148.186 73.9018 149.187 73.5466C151.382 72.7665 153.576 71.9833 155.776 71.217C156.606 70.9283 157.449 70.679 158.289 70.4211C158.499 70.3566 158.72 70.3264 158.987 70.2695C159.012 70.4712 159.047 70.6248 159.049 70.7789C159.083 73.6428 159.128 76.5063 159.136 79.3703C159.139 80.7165 159.048 82.0628 159.043 83.4095C159.04 84.0095 158.807 84.4615 158.37 84.8244C158.545 85.2544 158.856 85.388 159.255 85.3967C160.682 85.4279 162.11 85.4555 163.537 85.5001C164.577 85.5328 165.616 85.5937 166.655 85.6352C167.105 85.6531 167.555 85.647 168.005 85.6669C168.262 85.6782 168.518 85.7197 168.81 85.7514C168.723 88.7019 168.638 91.5925 168.551 94.5404L168.55 94.5419ZM158.32 84.0796C158.473 83.9127 158.543 83.837 158.647 83.7228C158.489 83.6619 158.393 83.6245 158.234 83.5631C158.263 83.7382 158.281 83.8436 158.32 84.0801V84.0796Z" fill="black"/>
<path d="M133.214 85.1546V94.2231C132.75 94.458 132.299 94.3802 131.858 94.3541C131.062 94.307 130.267 94.1908 129.471 94.1908C127.755 94.1908 126.037 94.2282 124.321 94.2896C123.722 94.3111 123.335 94.5594 123.366 95.2796C123.417 96.461 123.429 97.645 123.415 98.8275C123.384 101.543 123.287 104.259 123.298 106.974C123.304 108.604 123.453 110.233 123.559 111.862C123.588 112.307 123.7 112.746 123.771 113.189C123.901 114.001 124.736 115.301 125.446 115.734C126.468 116.358 127.554 116.784 128.773 116.866C130.065 116.952 131.337 116.818 132.611 116.655C132.733 116.639 132.853 116.611 132.974 116.604C133.03 116.6 133.088 116.631 133.175 116.655C133.196 116.787 133.234 116.924 133.238 117.061C133.282 118.491 133.324 119.922 133.361 121.353C133.406 123.089 133.444 124.826 133.487 126.562C133.502 127.19 133.495 127.233 132.898 127.342C131.13 127.667 129.367 128.045 127.585 128.264C125.42 128.53 123.263 128.259 121.118 127.908C119.863 127.704 118.631 127.438 117.44 126.984C116.415 126.594 115.53 125.982 114.672 125.322C114.19 124.951 113.674 124.611 113.249 124.181C111.979 122.898 110.833 121.549 110.402 119.699C110.088 118.353 109.917 117.013 109.912 115.635C109.907 114.409 109.815 113.183 109.777 111.957C109.739 110.731 109.756 109.502 109.688 108.277C109.549 105.802 109.748 103.33 109.738 100.857C109.732 99.1592 109.778 97.4623 109.795 95.7649C109.797 95.5202 109.778 95.2735 109.75 95.0303C109.703 94.6126 109.55 94.4396 109.123 94.4309C107.427 94.3966 105.731 94.3843 104.034 94.3659C103.933 94.3649 103.83 94.3736 103.728 94.3828C102.595 94.4816 102.565 94.0194 102.506 93.2863C102.379 91.6964 102.285 90.1035 102.213 88.5105C102.178 87.758 102.179 86.9984 102.247 86.249C102.313 85.5144 102.446 85.4602 103.188 85.4187C105.148 85.3092 107.106 85.1863 109.065 85.065C109.245 85.0537 109.425 85.0184 109.664 84.9862C109.683 84.7471 109.72 84.5306 109.712 84.3151C109.672 83.1501 109.608 81.9855 109.578 80.8205C109.551 79.8187 109.566 78.816 109.552 77.8137C109.544 77.3033 109.506 76.7935 109.492 76.2832C109.484 76.0185 109.479 75.7508 109.509 75.4887C109.532 75.2824 109.643 75.1545 109.874 75.0613C111.559 74.3815 113.226 73.6603 114.909 72.9764C116.14 72.4768 117.391 72.0289 118.623 71.5314C119.493 71.1797 120.343 70.7809 121.204 70.4078C121.635 70.2215 122.064 70.029 122.505 69.8693C123.14 69.6394 123.256 69.9164 123.253 70.4109C123.235 73.2728 123.26 76.1352 123.24 78.9977C123.228 80.715 123.16 82.4324 123.119 84.1498C123.113 84.4323 123.118 84.7154 123.118 85.086C124.274 85.1351 125.368 85.1955 126.462 85.2242C127.586 85.2534 128.711 85.2693 129.835 85.2575C130.935 85.2462 132.034 85.1925 133.213 85.1551L133.214 85.1546Z" fill="black"/>
<path d="M231.357 127.606C231.072 127.636 230.794 127.686 230.514 127.69C228.06 127.723 225.606 127.755 223.152 127.771C221.765 127.78 220.378 127.754 218.991 127.748C217.84 127.744 217.73 127.662 217.86 126.537C218.137 124.151 218.11 121.759 218.082 119.366C218.039 115.663 217.959 111.96 217.959 108.257C217.959 104.104 218.018 99.9516 218.074 95.7992C218.118 92.6087 218.199 89.4186 218.262 86.2286C218.274 85.6061 218.404 85.471 219.02 85.4643C221.802 85.4351 224.584 85.3983 227.366 85.3829C228.327 85.3778 229.289 85.4218 230.25 85.4526C230.427 85.4582 230.603 85.5058 230.81 85.5386C230.895 88.4742 230.979 91.373 231.067 94.4289C231.219 94.1755 231.309 94.0537 231.37 93.9186C232.195 92.0988 233.313 90.4639 234.577 88.9303C235.003 88.4138 235.527 87.9736 236.032 87.5287C236.523 87.0972 237.015 86.6514 237.567 86.31C238.044 86.0151 238.59 85.795 239.135 85.6532C240.539 85.2872 241.949 84.9176 243.378 84.6801C244.168 84.5491 245 84.6817 245.871 84.6965C245.906 85.0098 245.949 85.2447 245.956 85.4812C246.017 87.8528 246.051 90.2228 245.811 92.5897C245.676 93.9109 245.615 95.2392 245.524 96.5645C245.487 97.0922 245.47 97.1475 244.963 97.1557C243.506 97.1782 242.064 97.339 240.629 97.5729C239.152 97.814 237.722 98.2056 236.412 98.9714C235.698 99.3885 235.035 99.859 234.518 100.506C234.293 100.788 234.117 101.111 233.929 101.42C233.632 101.908 233.352 102.407 233.047 102.89C232.704 103.433 232.451 104.007 232.355 104.646C232.349 104.686 232.345 104.728 232.332 104.766C231.89 106.064 231.902 107.418 231.86 108.763C231.811 110.311 231.808 111.861 231.759 113.408C231.714 114.797 231.619 116.184 231.572 117.572C231.545 118.369 231.577 119.168 231.564 119.965C231.524 122.376 231.474 124.787 231.425 127.197C231.423 127.316 231.387 127.434 231.357 127.607V127.606Z" fill="black"/>
<path d="M60.8493 85.8344C60.7638 85.8918 60.7059 85.9603 60.6486 85.9598C60.601 85.9598 60.5544 85.8774 60.5073 85.8313C60.5682 85.793 60.6251 85.7387 60.6911 85.7223C60.7239 85.7146 60.7735 85.7776 60.8493 85.8344Z" fill="black"/>
<path d="M0.273345 111.703C0.18223 111.662 0.091115 111.62 0 111.578C0.0122852 111.541 0.0250822 111.504 0.0373674 111.466C0.139744 111.498 0.24212 111.53 0.344496 111.562L0.273345 111.703V111.703Z" fill="black"/>
</svg>
