<svg width="488" height="275" viewBox="0 0 488 275" fill="none" xmlns="http://www.w3.org/2000/svg">
<path d="M431.514 274.682C431.51 274.569 431.464 274.431 431.512 274.348C431.59 274.212 431.73 274.11 431.844 273.994C431.915 274.113 432.014 274.224 432.047 274.352C432.072 274.451 432.015 274.571 431.994 274.681H431.514V274.682Z" fill="black"/>
<path d="M62.3786 88.9955C62.7749 87.8406 63.2389 86.7028 63.5535 85.5257C64.0478 83.6732 64.4605 81.7975 64.8682 79.9237C65.0278 79.1922 65.0547 78.4335 65.1874 77.6945C65.3059 77.0323 65.4763 76.3789 65.6406 75.7264C66.6082 71.8942 67.5739 68.062 68.5535 64.234C69.952 58.7704 71.2927 53.2899 72.7918 47.8539C73.9121 43.7921 75.2574 39.7918 76.4753 35.7566C77.3998 32.6938 78.2775 29.6183 79.1831 26.5502C80.0665 23.5558 80.9599 20.5635 81.8473 17.5702C82.329 15.9466 82.7938 14.3177 83.2914 12.6984C83.6025 11.6862 83.6512 11.6419 84.7252 11.6509C87.3612 11.6715 89.9975 11.7962 92.6316 11.7478C97.4136 11.6593 102.193 11.4698 106.974 11.3363C108.669 11.2891 110.364 11.2679 112.06 11.2677C112.62 11.2675 113.195 11.3126 113.738 11.4412C114.972 11.7337 116.199 11.7281 117.434 11.5036C118.468 11.3149 119.499 11.1092 120.685 11.2679C120.749 11.757 120.861 12.2278 120.864 12.6979C120.887 16.3097 120.891 19.9212 120.897 23.5328C120.901 25.6791 120.913 27.8246 120.896 29.9706C120.87 33.3956 120.7 36.8243 120.813 40.2445C120.969 44.9496 120.755 49.6458 120.76 54.3465C120.774 67.9074 120.717 81.4672 120.769 95.0277C120.797 102.635 120.986 110.242 121.1 117.849C121.116 118.93 121.112 120.011 121.118 121.237C113 121.354 105.049 121.546 97.0076 121.363C96.6763 120.872 96.7991 120.252 96.7942 119.675C96.7761 117.528 96.788 115.381 96.8039 113.234C96.8334 109.091 96.8878 104.949 96.9043 100.806C96.9168 97.7952 96.9995 94.7772 96.851 91.7724C96.5262 85.1735 97.0831 78.5995 97.2152 72.0137C97.2787 68.8133 97.3263 65.6107 97.3059 62.409C97.2726 57.1738 97.1843 51.9377 97.106 46.7028C97.0731 44.481 97.0072 42.2597 96.9592 40.0387C96.9489 39.5555 96.9535 39.0725 96.9511 38.5894C96.8784 38.5712 96.8057 38.5531 96.732 38.5359C96.6324 38.6984 96.487 38.8491 96.4392 39.0264C95.683 41.8178 94.9666 44.6198 94.1866 47.4038C93.2051 50.9067 92.1748 54.3969 91.1655 57.8924C89.7563 62.7697 88.353 67.6482 86.9329 72.5214C85.5962 77.1078 84.2178 81.6826 82.8991 86.2754C82.0905 89.0929 81.3824 91.9391 80.5887 94.7609C79.866 97.3318 79.0219 99.8698 78.348 102.453C76.8969 108.018 75.5563 113.614 73.6084 119.037C73.4944 119.355 73.4088 119.706 73.2136 119.969C72.812 120.51 72.5435 121.112 71.5853 121.052C69.1874 120.901 66.7747 120.991 64.3731 120.88C61.291 120.737 58.2136 120.483 55.1332 120.295C54.0431 120.229 52.9497 120.185 51.8584 120.191C51.2753 120.194 50.9741 119.951 50.7532 119.439C49.6515 116.878 48.5688 114.318 47.8224 111.618C47.2207 109.443 46.4582 107.313 45.8113 105.15C45.38 103.709 45.0663 102.234 44.632 100.794C43.653 97.5548 42.6248 94.3301 41.6268 91.097C40.0208 85.89 38.3254 80.7125 36.4741 75.5876C35.0646 71.6869 34.0256 67.688 33.0492 63.658C32.3065 60.5939 31.1653 57.6235 30.1645 54.6243C28.4018 49.3388 26.5345 44.0857 25.3677 38.6216C25.1908 37.7907 24.9788 36.9682 24.5732 36.1757C24.6859 38.9178 24.7806 41.6607 24.9143 44.4021C25.0723 47.634 25.2743 50.8636 25.4373 54.0956C25.5913 57.1354 25.7613 60.1745 25.8462 63.2162C25.933 66.334 25.9447 69.4535 25.9564 72.5731C25.9766 77.8781 25.9658 83.1836 25.98 88.4895C25.9956 94.4015 26.0342 100.313 26.0419 106.225C26.0476 110.358 26.0172 114.492 26.0049 118.626C26.0036 119.217 26.0103 119.807 26.013 120.52C25.5837 120.538 25.185 120.578 24.7861 120.57C22.9784 120.535 21.1691 120.412 19.3651 120.462C16.8447 120.531 14.3264 120.719 11.8077 120.869C9.62743 120.998 7.44843 121.171 5.26752 121.274C4.21961 121.324 3.99669 121.063 3.96669 120.051C3.87584 117.002 3.76396 113.955 3.70212 110.905C3.58513 105.144 3.48914 99.3815 3.40016 93.6194C3.33055 89.0998 3.29493 84.5806 3.22832 80.061C3.15906 75.3923 3.0378 70.7238 2.99855 66.0546C2.95304 60.7062 2.99654 55.3573 2.95802 50.009C2.91622 44.1726 2.86343 38.335 2.7436 32.4994C2.64287 27.6072 2.4461 22.7165 2.27633 17.8262C2.22129 16.2461 2.0962 14.668 2.04016 13.0879C2.00698 12.1492 2.14619 12.0104 3.02401 11.9653C6.29405 11.7989 9.56387 11.5825 12.8356 11.4992C16.9017 11.3954 20.9717 11.4307 25.0383 11.36C29.0609 11.2895 33.0825 11.162 37.1046 11.0575C38.0171 11.034 38.1307 11.0598 38.4369 11.9367C39.0176 13.6061 39.5329 15.2984 40.0945 16.9745C40.8586 19.2549 41.6629 21.5219 42.4078 23.8079C43.1624 26.1211 43.8416 28.4591 44.5981 30.7724C45.2239 32.6865 45.9312 34.5739 46.5651 36.4852C46.9317 37.5921 47.2128 38.7267 47.5532 39.8422C48.1636 41.8451 48.7901 43.8432 49.4086 45.8443C50.596 49.6895 51.7784 53.5377 52.9698 57.382C55.4857 65.5077 58.0268 73.6249 60.5126 81.7602C61.2334 84.1198 62.0344 86.4708 62.3794 89.0025L62.3786 88.9955Z" fill="black"/>
<path d="M70.6085 192.109C71.1546 192.327 71.4854 192.456 71.8149 192.59C74.329 193.621 76.9267 194.45 79.3046 195.809C81.7606 197.211 83.8616 199.026 85.7458 201.113C86.0658 201.468 86.366 201.844 86.7101 202.174C89.2296 204.592 90.2175 207.711 90.7708 211.025C91.0247 212.546 91.3195 214.07 91.4408 215.603C91.5588 217.096 91.4729 218.604 91.4845 220.105C91.504 222.748 90.752 225.247 90.0881 227.768C89.4591 230.154 88.2323 232.218 86.8489 234.223C84.5923 237.496 81.4727 239.841 78.316 242.12C76.8047 243.211 75.093 244.028 73.4563 244.941C71.4546 246.056 69.1947 246.261 67.0039 246.698C65.6349 246.972 64.2611 247.218 62.8873 247.463C62.5282 247.528 62.1601 247.569 61.7945 247.575C60.5075 247.592 59.2198 247.581 57.933 247.597C51.6439 247.674 45.3553 247.739 39.067 247.843C34.5466 247.918 30.029 248.091 25.5089 248.136C23.0846 248.16 20.6587 248.012 18.2339 247.932C14.3759 247.804 10.5182 247.667 6.65933 247.535C6.32851 247.524 5.99648 247.54 5.66613 247.518C4.73694 247.456 4.53446 247.253 4.51861 246.295C4.44348 241.848 4.34832 237.402 4.31723 232.956C4.27316 226.669 4.2601 220.383 4.26806 214.096C4.27621 208.434 4.36141 202.773 4.35552 197.111C4.34909 191.928 4.21656 186.745 4.22716 181.562C4.24425 172.222 4.32038 162.882 4.38551 153.543C4.41213 149.756 4.47281 145.969 4.51945 142.183C4.52136 141.999 4.53326 141.815 4.5531 141.633C4.63683 140.896 4.76773 140.761 5.52701 140.748C6.99852 140.721 8.46974 140.724 9.94107 140.701C13.581 140.642 17.222 140.604 20.8616 140.505C25.0112 140.393 29.1594 140.199 33.3098 140.091C36.1386 140.018 38.9684 140.012 41.7982 140.01C46.3576 140.005 50.9168 140.027 55.4763 140.043C59.5785 140.057 63.6005 140.563 67.4769 141.987C69.2339 142.632 71.0077 143.232 72.7646 143.878C74.9324 144.675 76.8388 145.917 78.5538 147.445C80.0875 148.811 81.7143 150.109 83.0554 151.649C85.8301 154.836 87.3224 158.657 87.9102 162.819C88.1773 164.708 88.3966 166.615 88.4639 168.52C88.6115 172.654 87.451 176.438 85.0714 179.824C84.1001 181.206 83.0366 182.523 82.0332 183.883C80.9534 185.347 79.6806 186.595 78.1524 187.593C76.4316 188.715 74.8148 190.004 72.9134 190.834C72.5104 191.01 72.0845 191.137 71.6984 191.343C71.3685 191.518 71.0803 191.773 70.6094 192.111L70.6085 192.109ZM30.4631 229.701C30.9055 229.701 31.1856 229.706 31.4661 229.7C34.9104 229.628 38.3533 229.516 41.7985 229.494C44.1473 229.479 46.4955 229.594 48.8447 229.64C51.1099 229.684 53.2931 229.166 55.4515 228.577C57.2705 228.078 58.6131 226.791 60.0165 225.601C62.5978 223.412 63.9828 220.555 64.8048 217.36C65.2854 215.493 64.7047 213.727 64.2982 211.937C63.9782 210.531 63.2801 209.379 62.3038 208.34C61.6596 207.655 61.1155 206.877 60.5276 206.14C60.7281 206.016 60.8639 205.931 61.1271 205.769C60.109 205.075 59.283 204.474 58.4184 203.933C57.3863 203.286 56.2097 202.995 55.0608 202.618C53.2289 202.018 51.3516 201.683 49.449 201.633C46.5495 201.557 43.6455 201.658 40.7435 201.642C37.6294 201.625 34.5127 201.971 31.3998 201.576C31.1379 201.543 30.8549 201.678 30.664 201.717C30.5972 211.048 30.5312 220.27 30.4641 229.701L30.4631 229.701ZM30.3819 184.155C32.1786 184.224 33.8617 184.305 35.5453 184.349C37.4919 184.401 39.4396 184.473 41.3858 184.441C44.3927 184.391 47.4081 184.377 50.4006 184.127C53.0697 183.903 55.5577 183.047 57.5725 181.116C58.9046 179.839 60.2394 178.567 60.9948 176.852C62.053 174.448 62.185 171.959 61.5245 169.417C61.3398 168.708 61.2259 167.982 61.0766 167.264C60.8883 166.358 60.659 165.451 59.9987 164.769C58.9292 163.664 57.8285 162.586 56.7066 161.534C55.6896 160.581 54.4767 159.901 53.1588 159.497C50.6346 158.725 48.0353 158.466 45.3929 158.537C43.2775 158.593 41.1604 158.596 39.0448 158.565C36.4781 158.526 33.9121 158.425 31.3457 158.356C30.9558 158.345 30.564 158.354 30.0145 158.355C30.0159 167.009 29.8857 175.511 30.3819 184.156L30.3819 184.155ZM61.7848 206.909C61.8202 206.877 61.8546 206.846 61.8899 206.815C61.783 206.693 61.6761 206.573 61.5692 206.451C61.5317 206.485 61.4943 206.519 61.4567 206.553C61.5657 206.672 61.6757 206.791 61.7847 206.91L61.7848 206.909Z" fill="black"/>
<path d="M254.392 68.7015C255.087 67.7137 255.783 66.7519 256.45 65.771C258.989 62.0408 261.599 58.3657 264.576 54.9634C266.863 52.349 269.109 49.6992 271.39 47.0802C273.144 45.0666 274.922 43.0744 276.696 41.0795C277.332 40.3644 278.042 39.7083 278.618 38.9502C279.19 38.1973 279.921 37.9438 280.799 37.9217C281.998 37.8917 283.198 37.8496 284.396 37.8286C292.349 37.6897 300.302 37.5539 308.255 37.421C308.674 37.4144 309.092 37.4428 309.572 37.5914C306.441 41.3271 303.068 44.7637 299.83 48.3223C296.549 51.929 293.307 55.5721 290.058 59.2087C286.841 62.8079 283.619 66.4025 280.546 69.9509C285.833 78.3442 290.963 86.6119 296.22 94.7988C302.184 104.089 310.79 118.359 311.207 119.959C310.856 119.992 310.522 120.05 310.188 120.052C306.154 120.068 302.119 120.074 298.084 120.085C294.539 120.096 290.992 120.125 287.446 120.116C286.05 120.112 284.654 120.021 283.257 119.982C282.58 119.963 282.176 119.603 281.847 119.037C280.926 117.45 279.974 115.88 279.021 114.313C276.099 109.504 273.226 104.662 270.225 99.9034C267.818 96.0879 265.251 92.3747 262.759 88.6132C262.433 88.1203 262.123 87.6154 261.755 87.0371C261.47 87.2772 261.214 87.4521 261.007 87.6728C258.693 90.1547 256.391 92.6479 254.077 95.1289C253.625 95.6129 253.551 96.1792 253.586 96.7953C253.694 98.6693 253.838 100.544 253.89 102.42C253.952 104.605 253.931 106.792 253.946 108.979C253.947 109.139 253.917 109.304 253.947 109.457C254.234 110.94 253.971 112.423 253.958 113.905C253.941 115.578 253.964 117.251 253.959 118.924C253.957 119.196 253.894 119.468 253.844 119.86C253.325 119.908 252.823 119.997 252.321 119.997C247.965 119.999 243.608 119.977 239.252 119.977C235.821 119.977 232.39 119.995 228.959 120.005C228.719 120.005 228.478 120.018 228.24 119.993C227.382 119.904 227.068 119.534 227.067 118.657C227.066 109.764 227.082 100.871 227.054 91.9784C227.031 84.7861 226.946 77.5942 226.909 70.4029C226.896 67.8087 226.955 65.2146 226.968 62.6196C226.982 60.0397 227.014 57.4585 226.976 54.879C226.94 52.3656 226.763 49.8528 226.765 47.3398C226.767 44.4238 226.945 41.5068 226.958 38.5902C226.977 34.4331 226.95 30.2763 226.881 26.1192C226.753 18.2486 226.588 10.3785 226.427 2.50809C226.385 0.503213 226.425 0.403297 228.454 0.396585C232.607 0.382723 236.758 0.411037 240.911 0.42824C243.868 0.440184 246.824 0.448137 249.781 0.490148C250.693 0.502845 251.603 0.620911 252.588 0.696801C252.651 1.07737 252.741 1.37794 252.746 1.68026C252.834 6.55469 252.928 11.4286 252.983 16.3033C253.052 22.2595 253.081 28.2155 253.137 34.1715C253.195 40.2478 253.232 46.3245 253.346 52.3999C253.398 55.1117 253.655 57.8195 253.746 60.5306C253.825 62.8736 253.795 65.2192 253.832 67.5641C253.838 67.9316 253.697 68.3863 254.392 68.7025L254.392 68.7015Z" fill="black"/>
<path d="M213.895 117.603C212.56 117.634 211.374 117.672 210.187 117.685C206.151 117.731 202.115 117.78 198.079 117.803C195.444 117.818 192.81 117.789 190.175 117.78C190.015 117.779 189.855 117.769 189.696 117.776C188.48 117.828 188.418 117.838 188.246 116.687C187.855 114.08 187.533 111.462 187.18 108.849C187.107 108.31 187.018 107.774 186.904 107.028C186.067 108.051 185.406 108.929 184.675 109.743C182.503 112.161 180.09 114.289 177.223 115.87C175.684 116.72 174.047 117.319 172.4 117.911C169.441 118.976 166.35 119.218 163.26 119.581C159.833 119.983 156.498 119.4 153.149 118.955C148.575 118.345 144.499 116.437 140.853 113.688C139.539 112.696 138.466 111.339 137.427 110.033C134.945 106.911 133.546 103.256 132.631 99.4261C132.072 97.0898 132.184 94.6855 132.213 92.2862C132.257 88.5383 133.515 85.1927 135.243 81.9669C135.91 80.7223 136.797 79.6549 137.959 78.8276C139.033 78.0633 140.077 77.2565 141.162 76.5077C144.04 74.5221 147.152 73.0038 150.51 72.0335C153.218 71.2513 155.927 70.4393 158.685 69.8817C161.016 69.4105 163.411 69.1356 165.788 69.0389C169.8 68.8745 173.726 68.2277 177.648 67.4445C179.793 67.0158 181.972 66.7529 184.133 66.404C184.446 66.3534 184.749 66.2452 185.171 66.1335C185.493 64.8741 185.944 63.6576 185.764 62.2277C185.57 60.6892 185.423 59.1578 185.036 57.6454C184.661 56.1765 183.9 54.8921 182.998 53.7654C182.308 52.9037 181.272 52.1812 180.241 51.7583C178.148 50.8989 175.935 50.3094 173.634 50.4976C170.761 50.7335 167.97 51.2816 165.563 53.0476C163.954 54.2267 162.994 55.8542 162.321 57.6612C161.877 58.851 161.584 60.0958 161.235 61.32C160.947 62.3279 160.726 62.5349 159.632 62.5225C157.318 62.4969 155.004 62.4112 152.689 62.3926C151.256 62.3806 149.823 62.4707 148.389 62.4706C144.326 62.4715 140.262 62.4633 136.2 62.4192C135.725 62.4143 135.255 62.1624 134.654 61.9885C134.643 61.998 134.481 62.1417 134.271 62.3272C134.213 62.1684 134.127 62.0563 134.149 61.9722C134.511 60.5804 134.874 59.1897 135.259 57.8049C135.667 56.3432 136.125 54.8957 136.515 53.4291C137.381 50.1676 138.914 47.244 141.123 44.7201C142.939 42.6465 145.028 40.8739 147.403 39.4107C149.796 37.9364 152.309 36.7358 154.921 35.7701C156.85 35.0572 158.888 34.6376 160.885 34.115C161.8 33.8749 162.723 33.5982 163.659 33.5182C166.307 33.2929 168.962 33.116 171.618 33.0072C173.686 32.9224 175.769 32.8382 177.83 32.9813C181.164 33.2131 184.516 33.3756 187.79 34.1492C189.148 34.4701 190.503 34.8079 191.858 35.1407C194.649 35.8249 197.125 37.2105 199.561 38.6592C200.896 39.4525 202.252 40.2588 203.43 41.2591C206.733 44.0652 208.851 47.6706 210.235 51.7547C211.39 55.1605 211.805 58.6683 211.9 62.2345C212.056 68.148 212.228 74.0601 212.364 79.9737C212.432 82.9249 212.472 85.8779 212.456 88.8293C212.446 90.863 212.247 92.896 212.264 94.9289C212.28 96.7616 212.483 98.5929 212.586 100.425C212.744 103.201 212.841 105.982 213.05 108.754C213.243 111.299 213.553 113.836 213.807 116.378C213.843 116.731 213.858 117.087 213.894 117.601L213.895 117.603ZM185.985 80.1749C184.462 80.389 183.114 80.5131 181.795 80.7786C178.965 81.3489 176.086 81.5775 173.252 82.1586C171.077 82.6039 168.962 83.2372 166.808 83.7195C164.391 84.2597 162.494 85.5728 160.906 87.3175C160.132 88.1677 159.528 89.3181 159.247 90.4334C158.944 91.6407 158.938 92.9878 159.105 94.2329C159.475 96.9988 161.009 99.1237 163.331 100.607C165.984 102.303 169.099 102.633 172.083 103.326C172.192 103.351 172.319 103.285 172.437 103.286C174.191 103.29 175.842 102.787 177.393 102.066C178.526 101.541 179.697 101.002 180.47 99.8809C181.51 98.3722 182.627 96.9141 183.744 95.461C185.587 93.0643 186.084 90.2572 186.22 87.3554C186.282 86.0409 186.201 84.7187 186.157 83.4013C186.124 82.3687 186.047 81.3381 185.983 80.1748L185.985 80.1749Z" fill="black"/>
<path d="M182.371 221.505C182.411 221.715 182.434 221.759 182.423 221.791C181.368 224.814 180.243 227.805 178.091 230.265C176.777 231.768 175.57 233.399 174.085 234.711C170.583 237.802 166.923 240.661 162.449 242.349C159.194 243.577 155.823 244.301 152.479 245.154C151.561 245.388 150.578 245.379 149.623 245.456C147.875 245.596 146.123 245.844 144.377 245.816C141.708 245.774 139.042 245.539 136.375 245.377C135.658 245.334 134.932 245.317 134.228 245.187C128.01 244.042 122.053 242.241 116.971 238.256C116.123 237.591 115.153 237.072 114.357 236.354C113.234 235.341 112.178 234.246 111.173 233.115C109.747 231.508 108.285 229.915 107.044 228.169C105.94 226.616 105.129 224.858 104.168 223.202C102.757 220.772 102.305 218.039 101.654 215.367C100.884 212.204 100.504 209.012 100.677 205.744C100.761 204.154 100.568 202.551 100.532 200.953C100.408 195.473 101.007 190.114 103.089 184.978C104.367 181.825 105.841 178.765 107.582 175.856C108.598 174.158 109.964 172.669 111.184 171.094C111.575 170.589 111.968 170.079 112.42 169.632C112.712 169.343 113.109 169.157 113.465 168.935C113.631 168.832 113.852 168.791 113.982 168.658C115.65 166.942 117.737 165.877 119.842 164.83C121.164 164.172 122.45 163.441 123.769 162.776C126.539 161.378 129.503 160.57 132.543 160.055C134.861 159.663 137.194 159.315 139.534 159.104C141.192 158.954 142.878 158.985 144.544 159.079C147.772 159.26 151.014 159.426 154.152 160.289C156.498 160.934 158.829 161.644 161.13 162.433C163.419 163.219 165.408 164.571 167.2 166.171C169.195 167.953 171.226 169.718 173.026 171.688C175.57 174.473 177.545 177.663 178.966 181.183C180.119 184.038 181.036 186.964 181.472 190.007C181.987 193.599 182.368 197.211 182.789 200.816C182.937 202.08 183.015 203.353 183.161 204.618C183.237 205.277 183.003 205.582 182.336 205.633C181.581 205.69 180.833 205.831 180.079 205.897C175.98 206.255 171.883 206.63 167.781 206.942C162.243 207.364 156.7 207.726 151.161 208.132C146.5 208.473 141.842 208.853 137.181 209.192C134.162 209.412 131.14 209.589 128.119 209.784C127.92 209.797 127.718 209.787 127.52 209.813C126.775 209.908 126.581 210.069 126.718 210.827C126.958 212.159 127.219 213.5 127.631 214.786C128.464 217.384 130.032 219.542 131.92 221.484C132.365 221.941 132.714 222.502 133.198 222.907C133.833 223.439 134.503 224.001 135.256 224.307C136.731 224.906 138.247 225.451 139.793 225.817C144.365 226.9 148.817 226.458 153.125 224.547C154.755 223.824 156.195 222.898 157.344 221.495C158.353 220.262 159.536 219.172 160.555 217.946C161.053 217.347 161.414 216.609 161.729 215.887C162.347 214.468 163.069 214.103 164.547 214.567C170.233 216.352 175.77 218.525 181.22 220.929C181.618 221.105 182 221.318 182.371 221.505V221.505ZM155.963 193.149C155.904 191.741 155.9 190.428 155.773 189.127C155.709 188.466 155.506 187.788 155.222 187.186C154.22 185.057 153.1 182.983 152.134 180.838C151.511 179.454 150.689 178.275 149.473 177.382C147.534 175.959 145.451 174.968 142.95 175.077C141.152 175.155 139.387 175.367 137.614 175.694C135.144 176.149 132.979 177.197 131.18 178.872C129.76 180.194 128.52 181.721 127.289 183.229C126.855 183.761 126.596 184.484 126.408 185.161C125.72 187.63 125.454 190.169 125.293 192.719C125.209 194.051 125.301 194.193 126.615 194.237C128.609 194.303 130.605 194.349 132.6 194.317C137.272 194.243 141.947 194.194 146.614 193.985C149.68 193.848 152.735 193.448 155.964 193.15L155.963 193.149Z" fill="black"/>
<path d="M337.813 85.5819C337.801 85.6636 337.779 85.711 337.793 85.7424C338.584 87.47 339.353 89.2091 340.179 90.9207C341.2 93.0358 342.873 94.6489 344.474 96.3061C344.852 96.6967 345.344 97.0085 345.837 97.2503C347.156 97.8972 348.466 98.5938 349.849 99.0714C351.95 99.7971 354.094 100.418 356.379 100.196C357.209 100.116 358.051 100.163 358.887 100.139C359.204 100.13 359.532 100.128 359.833 100.046C360.718 99.8076 361.576 99.4273 362.473 99.2872C365.319 98.843 367.36 97.0721 369.389 95.2567C371.104 93.7218 372.343 91.8025 373.663 89.9494C374.588 88.6516 375.441 88.2962 376.916 88.8543C380.339 90.1499 383.741 91.5059 387.147 92.8481C389.337 93.7112 391.516 94.6011 393.705 95.4673C394.631 95.8331 394.715 95.9485 394.343 96.8595C393.194 99.6767 391.803 102.369 389.884 104.741C387.602 107.561 384.993 110.046 382.002 112.13C379.772 113.683 377.442 115.058 374.93 116.071C372.829 116.918 370.65 117.58 368.495 118.289C366.947 118.798 365.342 119.076 363.72 119.183C360.293 119.41 356.862 119.578 353.433 119.783C350.465 119.961 347.568 119.4 344.678 118.887C342.722 118.541 340.809 117.956 338.87 117.509C337.047 117.089 335.398 116.272 333.746 115.43C332.649 114.872 331.482 114.453 330.368 113.925C329.87 113.688 329.394 113.376 328.961 113.032C327.867 112.164 326.767 111.298 325.737 110.358C324.324 109.069 322.881 107.793 321.625 106.357C320.693 105.292 320.009 104.002 319.27 102.778C317.767 100.29 316.477 97.6899 315.485 94.9563C315.013 93.6587 314.696 92.3053 314.254 90.9955C313.446 88.5972 313.096 86.1135 312.817 83.6168C312.607 81.7522 312.485 79.8791 312.285 78.0128C312.045 75.7753 312.312 73.5629 312.525 71.3449C312.652 70.0369 312.65 68.7064 312.9 67.4248C313.298 65.3951 313.848 63.3946 314.353 61.3869C315.134 58.2724 316.3 55.2856 317.825 52.4799C319.875 48.7084 322.472 45.3712 325.825 42.5813C328.148 40.6491 330.538 38.9318 333.302 37.7331C334.328 37.2884 335.361 36.861 336.373 36.3879C338.919 35.1961 341.595 34.4932 344.35 33.9466C347.778 33.2665 351.222 33.0021 354.69 33.1524C357.398 33.2697 360.095 33.6578 362.802 33.835C365.289 33.9982 367.693 34.5432 370.049 35.2889C372.472 36.0555 374.768 37.1187 376.973 38.4045C379.509 39.8825 381.727 41.7598 383.756 43.826C385.083 45.1774 386.105 46.8304 387.255 48.3539C389.527 51.3652 390.594 54.9172 391.79 58.4178C393.572 63.6313 393.69 69.0867 394.202 74.485C394.359 76.153 394.471 77.8247 394.605 79.5231C393.858 80.0225 393.031 79.9345 392.26 79.9882C389.111 80.2038 385.956 80.3412 382.808 80.5588C375.351 81.0729 367.889 81.5188 360.447 82.1853C356.077 82.5761 351.7 82.6835 347.329 82.9392C344.742 83.0904 342.157 83.2596 339.573 83.4359C338.492 83.5099 338.299 83.6396 338.452 84.6263C338.556 85.2944 337.901 85.2262 337.808 85.5797L337.813 85.5819ZM367.475 67.6489L367.766 67.713C367.812 67.4982 367.924 67.2732 367.894 67.0693C367.485 64.3069 366.996 61.5543 366.651 58.7836C366.43 57.0018 365.862 55.3624 365.022 53.8114C364.667 53.1553 364.237 52.4361 363.646 52.0325C361.691 50.6987 359.527 49.7532 357.222 49.194C354.207 48.4619 351.193 48.5963 348.221 49.4461C345.489 50.2284 343.084 51.6882 340.996 53.5529C339.033 55.3051 338.04 57.6894 337.707 60.2882C337.428 62.4623 337.271 64.6527 337.096 66.8387C337.056 67.3358 337.164 67.844 337.208 68.3914C337.506 68.4047 337.699 68.4301 337.89 68.4184C346.06 67.9242 354.23 67.4259 362.4 66.9297C363.636 66.855 364.871 66.7702 366.107 66.7155C367.016 66.6748 367.094 66.746 367.477 67.65L367.475 67.6489Z" fill="black"/>
<path d="M410.074 203.709C408.061 203.746 406.15 203.811 404.238 203.812C399.361 203.814 394.485 203.764 389.608 203.78C384.933 203.795 380.256 203.785 375.584 203.936C371.633 204.063 367.69 204.414 363.742 204.646C362.353 204.728 360.961 204.767 359.569 204.8C358.179 204.833 356.784 204.898 355.398 204.828C354.556 204.786 353.925 204.934 353.491 205.697C353.407 205.845 353.176 205.911 352.875 206.103C353.403 207.735 353.895 209.371 354.468 210.977C354.794 211.891 355.1 212.801 356.039 213.408C356.585 213.761 356.863 214.53 357.258 215.114C359.792 218.861 363.507 220.892 367.765 221.794C370.509 222.375 373.384 222.399 376.187 221.709C377.035 221.501 377.897 221.338 378.761 221.209C380.261 220.984 381.591 220.388 382.762 219.443C384.441 218.089 385.968 216.58 387.32 214.894C387.894 214.178 388.513 213.499 389.119 212.808C389.989 211.816 390.397 211.7 391.63 212.189C395.047 213.544 398.462 214.905 401.868 216.289C403.756 217.056 405.596 217.946 407.508 218.643C408.959 219.173 409.017 220.403 408.41 221.444C407.083 223.72 405.722 225.986 403.903 227.926C402.81 229.092 401.729 230.271 400.645 231.446C398.557 233.707 396.032 235.372 393.278 236.675C390.933 237.784 388.541 238.803 386.127 239.754C384.985 240.204 383.745 240.406 382.546 240.707C382.124 240.813 381.692 240.875 381.265 240.959C377.329 241.728 373.357 241.956 369.357 241.714C367.328 241.591 365.295 241.496 363.274 241.295C360.654 241.034 358.059 240.622 355.545 239.777C354.238 239.338 352.896 239.005 351.573 238.616C351.306 238.538 351.038 238.449 350.79 238.325C347.549 236.701 344.291 235.058 341.449 232.81C339.399 231.189 337.549 229.293 336.012 227.113C333.69 223.818 331.973 220.215 330.589 216.471C329.876 214.543 329.527 212.453 329.226 210.405C328.813 207.603 328.605 204.772 328.303 201.954C328.244 201.399 328.14 200.849 328.084 200.294C327.921 198.697 328.01 197.116 328.22 195.518C328.564 192.907 328.728 190.272 329.037 187.656C329.447 184.184 330.47 180.893 331.815 177.656C332.928 174.979 334.615 172.759 336.394 170.548C337.344 169.368 338.115 168.044 339.073 166.872C339.796 165.986 340.669 165.218 341.507 164.432C342.263 163.722 343.014 162.991 343.853 162.389C345.078 161.51 346.314 160.602 347.664 159.953C349.783 158.934 351.999 158.117 354.177 157.221C354.472 157.1 354.774 156.977 355.085 156.915C358.603 156.211 362.076 155.198 365.68 155.053C368.388 154.944 371.105 155.037 373.818 155.046C377.239 155.058 380.547 155.825 383.843 156.615C385.151 156.928 386.433 157.322 387.635 158.016C389.223 158.932 390.941 159.62 392.559 160.489C393.646 161.072 394.762 161.679 395.682 162.484C397.66 164.217 399.54 166.054 401.328 167.999C404.075 170.988 405.563 174.622 406.973 178.299C407.785 180.418 408.407 182.616 409.001 184.81C409.52 186.725 409.69 188.701 409.899 190.681C410.332 194.784 410.038 198.883 410.178 202.98C410.185 203.173 410.125 203.368 410.074 203.709V203.709ZM374.457 189.155C377.671 189.095 380.384 189.056 383.097 188.99C384.485 188.956 384.982 188.482 384.813 187.162C384.6 185.505 384.382 183.826 383.92 182.228C382.654 177.85 380.168 174.234 376.556 171.46C375.631 170.75 374.487 170.235 373.363 169.907C372.609 169.687 371.691 169.852 370.883 170.02C368.54 170.509 366.238 171.232 363.879 171.593C361.058 172.025 358.977 173.43 357.494 175.765C356.532 177.278 355.69 178.87 354.843 180.452C354.51 181.074 354.176 181.745 354.07 182.429C353.79 184.241 353.612 186.07 353.437 187.896C353.325 189.075 353.569 189.309 354.746 189.318C356.742 189.334 358.738 189.319 360.733 189.363C362.406 189.4 364.08 189.595 365.75 189.553C368.82 189.476 371.888 189.277 374.458 189.153L374.457 189.155Z" fill="black"/>
<path d="M318.777 179.087C318.215 179.095 317.825 179.1 317.434 179.106C313.086 179.17 308.737 179.233 304.389 179.301C303.033 179.322 301.679 179.362 300.323 179.384C299.664 179.396 299.498 179.553 299.458 180.379C299.402 181.533 299.383 182.689 299.342 183.843C299.255 186.311 299.157 188.779 299.077 191.247C298.978 194.303 298.931 197.36 298.789 200.413C298.657 203.28 298.371 206.141 298.266 209.008C298.193 211.001 298.085 213.038 298.404 214.988C298.833 217.604 300.115 219.89 302.394 221.423C304.963 223.15 307.859 223.788 310.919 223.676C312.469 223.619 314.013 223.428 315.561 223.306C315.871 223.282 316.182 223.295 316.472 223.291C316.889 224.588 316.149 241.96 315.568 244.569C314.606 244.736 313.597 245.011 312.576 245.068C309.385 245.242 306.188 245.46 302.995 245.423C299.446 245.382 295.884 245.257 292.385 244.516C289.851 243.978 287.372 243.227 284.948 242.338C282.621 241.485 280.501 240.235 278.78 238.388C277.588 237.107 276.315 235.898 275.147 234.597C273.293 232.532 272.191 230.06 271.557 227.387C271.263 226.149 271.06 224.877 270.958 223.609C270.726 220.704 270.438 217.792 270.445 214.883C270.451 212.377 270.828 209.87 271.052 207.365C271.301 204.58 271.648 201.802 271.799 199.012C272.049 194.345 272.157 189.672 272.365 185.003C272.44 183.328 272.657 181.66 272.765 179.986C272.89 178.044 272.673 177.819 270.764 177.791C267.25 177.738 263.734 177.694 260.22 177.651C258.285 177.629 258.044 177.412 258.075 175.53C258.109 173.485 258.328 171.469 259.011 169.519C259.148 169.127 259.183 168.638 259.085 168.237C258.715 166.72 258.849 165.222 259.105 163.716C259.253 162.85 259.379 161.979 259.557 161.119C259.736 160.255 259.886 160.173 260.79 160.215C263.902 160.361 267.016 160.503 270.129 160.643C270.811 160.674 271.491 160.697 272.07 160.221C272.186 160.126 272.359 160.088 272.513 160.054C273.53 159.823 273.602 159.758 273.708 158.801C273.739 158.523 273.736 158.242 273.739 157.963C273.772 154.527 273.773 151.09 273.846 147.655C273.889 145.619 274.077 143.587 274.138 141.552C274.162 140.753 274.475 140.296 275.216 140.039C277.176 139.358 279.122 138.641 281.079 137.952C285.372 136.442 289.663 134.925 293.965 133.443C295.587 132.884 297.236 132.403 298.878 131.903C299.29 131.779 299.722 131.72 300.244 131.611C300.292 132.005 300.359 132.306 300.361 132.607C300.409 138.201 300.48 143.796 300.477 149.391C300.476 152.022 300.289 154.651 300.271 157.281C300.262 158.453 299.804 159.335 298.947 160.041C299.288 160.882 299.895 161.146 300.673 161.165C303.462 161.234 306.251 161.298 309.039 161.394C311.07 161.464 313.098 161.59 315.129 161.678C316.007 161.716 316.887 161.707 317.765 161.748C318.267 161.772 318.766 161.854 319.338 161.919C319.15 167.682 318.966 173.329 318.778 179.087L318.777 179.087ZM298.858 158.584C299.158 158.259 299.295 158.112 299.499 157.889C299.191 157.769 299.003 157.695 298.693 157.574C298.749 157.917 298.783 158.123 298.858 158.584V158.584Z" fill="black"/>
<path d="M248.781 161.319L248.985 179.034C248.084 179.503 247.2 179.361 246.339 179.32C244.783 179.246 243.227 179.037 241.673 179.055C238.319 179.094 234.964 179.205 231.614 179.364C230.445 179.419 229.694 179.913 229.771 181.319C229.898 183.625 229.946 185.938 229.946 188.249C229.946 193.555 229.818 198.862 229.9 204.165C229.949 207.348 230.276 210.528 230.521 213.707C230.588 214.576 230.815 215.432 230.964 216.295C231.236 217.878 232.899 220.4 234.295 221.23C236.305 222.425 238.435 223.234 240.818 223.365C243.344 223.504 245.827 223.214 248.312 222.867C248.549 222.834 248.783 222.777 249.02 222.759C249.129 222.751 249.244 222.81 249.415 222.854C249.459 223.112 249.535 223.378 249.546 223.647C249.665 226.44 249.779 229.234 249.883 232.027C250.009 235.418 250.123 238.809 250.246 242.201C250.29 243.427 250.277 243.51 249.112 243.738C245.665 244.412 242.23 245.19 238.754 245.658C234.532 246.226 230.312 245.745 226.114 245.108C223.659 244.736 221.246 244.244 218.908 243.385C216.898 242.646 215.155 241.471 213.464 240.2C212.514 239.486 211.498 238.833 210.659 238.004C208.15 235.526 205.882 232.916 204.997 229.313C204.353 226.689 203.988 224.077 203.948 221.385C203.912 218.99 203.703 216.598 203.602 214.203C203.501 211.808 203.506 209.407 203.345 207.016C203.019 202.183 203.352 197.351 203.277 192.519C203.226 189.204 203.277 185.887 203.272 182.571C203.272 182.093 203.228 181.612 203.168 181.137C203.066 180.322 202.765 179.987 201.93 179.98C198.616 179.951 195.302 179.966 191.988 179.967C191.789 179.967 191.589 179.987 191.39 180.006C189.179 180.224 189.108 179.322 188.978 177.891C188.694 174.788 188.475 171.679 188.298 168.568C188.214 167.099 188.199 165.615 188.314 164.15C188.427 162.713 188.684 162.605 190.134 162.507C193.959 162.249 197.782 161.965 201.606 161.684C201.958 161.658 202.307 161.585 202.774 161.517C202.805 161.049 202.872 160.625 202.853 160.205C202.749 157.93 202.597 155.657 202.512 153.382C202.439 151.426 202.445 149.466 202.393 147.509C202.367 146.512 202.281 145.517 202.242 144.521C202.222 144.004 202.205 143.482 202.257 142.969C202.298 142.565 202.513 142.313 202.962 142.126C206.237 140.76 209.479 139.313 212.751 137.941C215.144 136.937 217.579 136.035 219.973 135.035C221.664 134.329 223.316 133.53 224.99 132.782C225.827 132.408 226.662 132.023 227.52 131.701C228.754 131.237 228.988 131.776 228.993 132.742C229.021 138.333 229.135 143.924 229.16 149.516C229.175 152.871 229.081 156.227 229.041 159.583C229.034 160.135 229.052 160.688 229.06 161.412C231.319 161.482 233.456 161.576 235.594 161.607C237.791 161.639 239.989 161.644 242.185 161.596C244.333 161.549 246.478 161.42 248.782 161.32L248.781 161.319Z" fill="black"/>
<path d="M450.45 241.971C449.894 242.029 449.35 242.128 448.804 242.135C444.01 242.199 439.216 242.263 434.421 242.294C431.712 242.311 429.002 242.26 426.293 242.249C424.044 242.241 423.829 242.08 424.084 239.883C424.624 235.222 424.572 230.549 424.517 225.873C424.433 218.639 424.276 211.405 424.276 204.171C424.276 196.058 424.391 187.946 424.502 179.834C424.587 173.601 424.745 167.369 424.868 161.137C424.892 159.921 425.146 159.657 426.349 159.644C431.784 159.587 437.219 159.515 442.654 159.485C444.532 159.475 446.41 159.561 448.287 159.621C448.634 159.632 448.978 159.725 449.382 159.789L449.885 177.157C450.181 176.662 450.357 176.424 450.476 176.16C452.087 172.605 454.272 169.411 456.742 166.415C457.574 165.406 458.597 164.546 459.584 163.677C460.542 162.834 461.504 161.963 462.582 161.296C463.514 160.72 464.581 160.29 465.645 160.013C468.389 159.298 471.142 158.576 473.935 158.112C475.477 157.856 477.104 158.115 478.805 158.144C478.873 158.756 478.958 159.215 478.97 159.677C479.089 164.31 479.157 168.94 478.687 173.564C478.424 176.145 478.305 178.74 478.126 181.329C478.055 182.36 478.021 182.468 477.03 182.484C474.184 182.528 471.367 182.842 468.565 183.299C465.678 183.77 462.885 184.535 460.326 186.031C458.931 186.846 457.635 187.765 456.625 189.03C456.186 189.58 455.843 190.21 455.475 190.815C454.895 191.768 454.348 192.743 453.753 193.686C453.083 194.747 452.587 195.869 452.4 197.116C452.388 197.195 452.381 197.277 452.355 197.351C451.491 199.888 451.516 202.533 451.433 205.16C451.338 208.184 451.332 211.211 451.235 214.235C451.148 216.948 450.963 219.657 450.87 222.369C450.817 223.926 450.881 225.486 450.855 227.044C450.776 231.753 450.68 236.463 450.584 241.172C450.579 241.404 450.509 241.634 450.45 241.972V241.971Z" fill="black"/>
<path d="M118.874 182.404C118.707 182.516 118.594 182.65 118.482 182.649C118.389 182.649 118.298 182.488 118.206 182.398C118.325 182.323 118.436 182.217 118.565 182.185C118.629 182.17 118.726 182.293 118.874 182.404Z" fill="black"/>
<path d="M0.534 232.941C0.356 232.86 0.178 232.779 0 232.697C0.024 232.624 0.049 232.551 0.073 232.478C0.273 232.54 0.473 232.603 0.673 232.665L0.534 232.94V232.941Z" fill="black"/>
</svg>
