<svg width="152" height="88" viewBox="0 0 152 88" fill="none" xmlns="http://www.w3.org/2000/svg">
<g clip-path="url(#clip0_935_89)">
<path d="M-6.10352e-05 3.04431H11.2648L20.0548 26.456L28.7394 3.04431H39.7929V40.6608H31.318V14.25L20.8967 40.6608H18.1068L7.63288 14.25V40.6608H0.00154493L-6.10352e-05 3.04431Z" fill="black"/>
<path d="M44.1583 33.0327C44.1583 26.6137 50.0538 24.1941 58.4745 24.1941H61.5802V23.0886C61.5802 19.8265 60.5804 18.0389 57.1064 18.0389C54.1068 18.0389 52.7384 19.5644 52.4194 21.9314H45.2082C45.6818 15.4081 50.8408 12.5142 57.5775 12.5142C64.3143 12.5142 69.1045 15.2503 69.1045 22.7213V40.6607H61.683V37.3469C60.1043 39.5561 57.6827 41.2394 53.3667 41.2394C48.3691 41.2394 44.1583 38.8197 44.1583 33.0327ZM61.5802 31.0331V28.7186H58.6333C54.212 28.7186 51.6325 29.6654 51.6325 32.6111C51.6325 34.6108 52.8438 35.9258 55.6329 35.9258C59.0017 35.9258 61.5802 34.0848 61.5802 31.0331Z" fill="black"/>
<path d="M74.5793 0.677246H82.2106V24.7727L91.053 13.1462H99.1587L89.1586 25.6669L99.9491 40.6608H91.3154L82.2088 27.6666V40.6608H74.5775L74.5793 0.677246Z" fill="black"/>
<path d="M99.7368 27.2458V26.8242C99.7368 18.1441 105.895 12.5142 113.896 12.5142C121 12.5142 127.317 16.6713 127.317 26.5085V28.6134H107.474C107.685 33.1897 110.159 35.8206 114.316 35.8206C117.843 35.8206 119.579 34.2952 120.054 31.9807H127.264C126.369 37.9255 121.633 41.2394 114.108 41.2394C105.789 41.2394 99.7368 36.031 99.7368 27.2458ZM119.895 23.9311C119.632 19.7748 117.527 17.7751 113.893 17.7751C110.471 17.7751 108.155 20.0378 107.576 23.9311H119.895Z" fill="black"/>
<path d="M-6.10352e-05 49.4813H14.7898C23.0009 49.4813 27.2634 52.8511 27.2634 59.2677V59.478C27.2634 63.4231 25.3723 66.317 21.1583 67.5277C26.0532 68.5263 28.685 71.315 28.685 76.3647V76.5759C28.685 83.4675 24.1586 87.0961 15.474 87.0961H-6.10352e-05V49.4813ZM13.4216 64.9494C17.5263 64.9494 19.1585 63.4757 19.1585 60.1084V59.898C19.1585 56.7411 17.3692 55.3217 13.369 55.3217H8.31621V64.9494H13.4216ZM14.1617 81.2056C18.3725 81.2056 20.2668 79.3153 20.2668 75.8921V75.6809C20.2668 72.2092 18.3758 70.4207 13.7408 70.4207H8.31963V81.2056H14.1617Z" fill="black"/>
<path d="M32.3153 73.6828V73.2612C32.3153 64.5812 38.4732 58.9512 46.4737 58.9512C53.5788 58.9512 59.8953 63.1083 59.8953 72.9456V75.0505H40.0528C40.2633 79.6268 42.7373 82.2576 46.8946 82.2576C50.4213 82.2576 52.1571 80.7322 52.6323 78.4177H59.8427C58.9473 84.3625 54.2111 87.6764 46.6867 87.6764C38.3679 87.6764 32.3153 82.468 32.3153 73.6828ZM52.4737 70.3681C52.2106 66.2118 50.1048 64.2121 46.4713 64.2121C43.0499 64.2121 40.7345 66.4748 40.1556 70.3681H52.4737Z" fill="black"/>
<path d="M66.0524 78.943V65.0012H62.5233V59.5833H66.0499V53.6377H73.6295V59.5833H79.419V65.0012H73.6295V78.2592C73.6295 80.4693 74.7345 81.5213 76.6824 81.5213C77.6733 81.5496 78.6593 81.3705 79.5768 80.9953V86.8875C78.0858 87.3952 76.5192 87.6453 74.9442 87.6272C69.1572 87.6239 66.0524 84.6749 66.0524 78.943Z" fill="black"/>
<path d="M85.895 78.943V65.0012H82.3683V59.5833H85.895V53.6377H93.4746V59.5833H99.2641V65.0012H93.4746V78.2592C93.4746 80.4693 94.5788 81.5213 96.5267 81.5213C97.5179 81.5497 98.5041 81.3705 99.4219 80.9953V86.8875C97.9309 87.3952 96.3643 87.6453 94.7893 87.6272C88.9998 87.6239 85.895 84.6749 85.895 78.943Z" fill="black"/>
<path d="M102.896 73.6828V73.2612C102.896 64.5812 109.054 58.9512 117.054 58.9512C124.159 58.9512 130.476 63.1083 130.476 72.9456V75.0505H110.633C110.844 79.6268 113.317 82.2576 117.475 82.2576C121.002 82.2576 122.738 80.7322 123.213 78.4177H130.423C129.528 84.3625 124.792 87.6764 117.267 87.6764C108.947 87.6764 102.896 82.468 102.896 73.6828ZM123.054 70.3681C122.791 66.2118 120.685 64.2121 117.052 64.2121C113.63 64.2121 111.315 66.4748 110.736 70.3681H123.054Z" fill="black"/>
<path d="M135.474 59.5833H143.105V64.8434C144.841 61.1597 147.526 59.2134 152 59.1616V66.2628C146.368 66.211 143.105 68.052 143.105 73.3138V87.097H135.474V59.5833Z" fill="black"/>
</g>
<defs>
<clipPath id="clip0_935_89">
<rect width="152" height="87" fill="white" transform="translate(0 0.677246)"/>
</clipPath>
</defs>
</svg>
