<svg width="39" height="32" viewBox="0 0 39 32" fill="none" xmlns="http://www.w3.org/2000/svg">
<path fill-rule="evenodd" clip-rule="evenodd" d="M19.6533 0.924481C20.1615 1.17857 20.4825 1.69796 20.4825 2.26612V30.242C20.4825 30.8102 20.1615 31.3296 19.6533 31.5837C19.1451 31.8378 18.537 31.7829 18.0825 31.442L7.82499 23.7489H1.66406C0.835635 23.7489 0.164062 23.0773 0.164062 22.2489V10.2592C0.164062 9.43081 0.835635 8.75924 1.66406 8.75924H7.82499L18.0825 1.06612C18.537 0.725227 19.1451 0.670393 19.6533 0.924481ZM17.4825 5.26612L9.22499 11.4592C8.96535 11.654 8.64955 11.7592 8.32499 11.7592H3.16406V20.7489H8.32499C8.64955 20.7489 8.96535 20.8542 9.22499 21.0489L17.4825 27.242V5.26612Z" fill="black"/>
<path fill-rule="evenodd" clip-rule="evenodd" d="M24.3018 10.9207C24.6723 10.1797 25.5733 9.8794 26.3142 10.2499L25.6434 11.5915C26.3142 10.2499 26.3149 10.2502 26.3156 10.2506L26.317 10.2513L26.32 10.2528L26.3268 10.2562L26.3433 10.2647C26.3556 10.2711 26.3705 10.279 26.3878 10.2884C26.4224 10.3071 26.4667 10.3319 26.5194 10.363C26.6247 10.425 26.7643 10.5126 26.9268 10.6277C27.25 10.8566 27.6734 11.2012 28.0967 11.6774C28.9545 12.6424 29.8078 14.1498 29.8078 16.2542C29.8078 18.3586 28.9545 19.8659 28.0967 20.831C27.6734 21.3072 27.25 21.6517 26.9268 21.8807C26.7643 21.9957 26.6247 22.0834 26.5194 22.1454C26.4667 22.1765 26.4224 22.2012 26.3878 22.22C26.3705 22.2294 26.3556 22.2372 26.3433 22.2436L26.3268 22.2521L26.32 22.2556L26.317 22.2571L26.3156 22.2578C26.3149 22.2581 26.3143 22.2585 25.6571 20.9442L26.3142 22.2585C25.5733 22.6289 24.6723 22.3286 24.3018 21.5876C23.9336 20.8512 24.228 19.9568 24.959 19.5821C24.9635 19.5797 24.9763 19.5726 24.9964 19.5608C25.0368 19.5369 25.1053 19.4945 25.1927 19.4326C25.3691 19.3077 25.6117 19.111 25.8545 18.8379C26.3289 18.3042 26.8078 17.4802 26.8078 16.2542C26.8078 15.0281 26.3289 14.2041 25.8545 13.6705C25.6117 13.3973 25.3691 13.2007 25.1927 13.0758C25.1053 13.0139 25.0368 12.9714 24.9964 12.9476C24.9762 12.9357 24.9634 12.9286 24.9589 12.9262L24.9639 12.9288L24.9678 12.9308L24.9701 12.9319L24.9713 12.9325C24.2313 12.5616 23.9315 11.6612 24.3018 10.9207Z" fill="black"/>
<path fill-rule="evenodd" clip-rule="evenodd" d="M28.385 4.327C28.7238 3.57102 29.6113 3.23283 30.3673 3.57164L29.7538 4.94046C30.3673 3.57164 30.368 3.57195 30.3687 3.57227L30.3703 3.57298L30.3739 3.57462L30.3831 3.57878L30.4088 3.5907C30.4292 3.60025 30.4561 3.61302 30.489 3.62908C30.5548 3.6612 30.6448 3.70653 30.7556 3.76566C30.977 3.8838 31.2824 4.05764 31.6439 4.29179C32.3648 4.75882 33.3204 5.47351 34.277 6.47513C36.2037 8.49261 38.1305 11.6776 38.1305 16.26C38.1305 20.7859 36.4649 23.8004 34.7281 25.6834C33.8708 26.6128 33.0109 27.2516 32.3566 27.662C32.0288 27.8676 31.7503 28.0174 31.546 28.1189C31.4437 28.1696 31.3598 28.2085 31.2972 28.2363C31.2659 28.2502 31.2399 28.2614 31.2196 28.2699L31.1935 28.2808L31.1837 28.2848L31.1796 28.2864L31.1778 28.2872C31.1769 28.2875 31.1761 28.2878 30.6204 26.8945L31.1761 28.2878C30.4066 28.5947 29.534 28.2197 29.2272 27.4502C28.9214 26.6836 29.2925 25.8147 30.0561 25.5048C30.0588 25.5036 30.0665 25.5003 30.0787 25.4949C30.1041 25.4836 30.1493 25.4629 30.2114 25.4321C30.3358 25.3703 30.5268 25.2684 30.7625 25.1206C31.235 24.8242 31.8777 24.3489 32.5229 23.6494C33.7911 22.2745 35.1305 19.9717 35.1305 16.26C35.1305 12.6047 33.619 10.1299 32.1074 8.54707C31.3448 7.74852 30.5812 7.17788 30.0128 6.80964C29.7295 6.62615 29.4978 6.49486 29.343 6.41228C29.2658 6.37105 29.2081 6.34213 29.1731 6.32508C29.1557 6.31656 29.1439 6.31102 29.1383 6.3084C29.1358 6.30722 29.1345 6.30664 29.1345 6.30664L29.1363 6.30743L29.1383 6.3084C28.3832 5.96918 28.0464 5.08256 28.385 4.327Z" fill="black"/>
</svg>
